<?xml version="1.0"?>
<svg width="67" height="55" xmlns="http://www.w3.org/2000/svg" xmlns:svg="http://www.w3.org/2000/svg">
 <defs>
  <filter color-interpolation-filters="sRGB" filterUnits="userSpaceOnUse" height="55" id="filter0_d_846_93" width="67" x="0" y="0">
   <feFlood flood-opacity="0" result="BackgroundImageFix"/>
   <feColorMatrix in="SourceAlpha" result="hardAlpha" type="matrix" values="0 0 0 0 0 0 0 0 0 0 0 0 0 0 0 0 0 0 127 0"/>
   <feOffset dy="4"/>
   <feGaussianBlur stdDeviation="2"/>
   <feComposite in2="hardAlpha" operator="out"/>
   <feColorMatrix type="matrix" values="0 0 0 0 0 0 0 0 0 0 0 0 0 0 0 0 0 0 0.25 0"/>
   <feBlend in2="BackgroundImageFix"/>
   <feBlend in="SourceGraphic" in2="effect1_dropShadow_846_93"/>
  </filter>
 </defs>
 <g class="layer">
  <title>Layer 1</title>
  <g filter="url(#filter0_d_846_93)" id="svg_1">
   <path clip-rule="evenodd" d="m4,4.5c0,-2.49 2.01,-4.5 4.5,-4.5l50,0c2.49,0 4.5,2.01 4.5,4.5c0,2.49 -2.01,4.5 -4.5,4.5l-50,0c-2.49,0 -4.5,-2.01 -4.5,-4.5zm0,19c0,-2.49 2.01,-4.5 4.5,-4.5l50,0c2.49,0 4.5,2.01 4.5,4.5c0,2.49 -2.01,4.5 -4.5,4.5l-50,0c-2.49,0 -4.5,-2.01 -4.5,-4.5zm0,19c0,-2.49 2.01,-4.5 4.5,-4.5l50,0c2.49,0 4.5,2.01 4.5,4.5c0,2.49 -2.01,4.5 -4.5,4.5l-50,0c-2.49,0 -4.5,-2.01 -4.5,-4.5z" fill="#3f3f3f" fill-rule="evenodd" id="svg_2"/>
  </g>
 </g>
</svg>